#!OML:ASF H:\Punching\Project 1\Capture day 1\Session 1\female.ASF
:FULLY-SPECIFIED
:DEGREES
913
root -1.76661 13.1191 5.64884 17.7272 -12.2964 -5.78901
lowerback 11.1908 -4.26192 -4.52432
upperback -1.55545 -6.2819 0.380255
thorax -7.38998 -2.86331 4.00091
lowerneck -1.5367 11.8551 24.6066
upperneck 20.6287 15.3904 -7.20892
head 9.34928 8.51418 -4.74211
rclavicle 1.4392e-013 -2.22639e-014
rhumerus 14.9027 31.1017 -82.7129
rradius 133.33
rwrist -38.1982
rhand -18.7655 -3.74579
rfingers 7.12502
rthumb 7.53154 -33.5917
lclavicle 1.4392e-013 -2.22639e-014
lhumerus 36.4348 -5.98492 59.5003
lradius 64.376
lwrist -5.64597
lhand -13.1624 29.5224
lfingers 7.12502
lthumb 12.9366 59.1014
rfemur -69.4273 6.93322 21.7469
rtibia 71.8639
rfoot -18.8555 2.98165
rtoes -0.703086
lfemur -23.0208 4.86153 6.09508
ltibia 73.7017
lfoot -25.5852 -1.55072
ltoes -41.5415
914
root -1.76345 13.1033 5.62857 17.4664 -12.4423 -5.82502
lowerback 11.5369 -4.65374 -4.80706
upperback -1.55105 -6.85048 0.516974
thorax -7.47967 -3.12098 4.42191
lowerneck -1.20195 12.1778 24.6524
upperneck 20.8403 15.9383 -7.31121
head 9.47272 8.77745 -4.71363
rclavicle -3.97569e-014 0
rhumerus 15.232 31.4273 -82.2809
rradius 133.169
rwrist -37.2737
rhand -18.7302 -3.64855
rfingers 7.12502
rthumb 7.56554 -33.4932
lclavicle -3.97569e-014 0
lhumerus 37.9039 -3.45655 60.1882
lradius 57.6627
lwrist -8.26881
lhand -12.2058 28.4927
lfingers 7.12502
lthumb 13.8586 58.011
rfemur -69.2816 6.96862 21.8393
rtibia 71.932
rfoot -18.8468 3.05819
rtoes -0.688138
lfemur -22.9847 5.11829 6.24551
ltibia 74.0789
lfoot -25.4312 -1.94413
ltoes -41.4755
915
root -1.76044 13.0874 5.60827 17.2365 -12.4161 -5.88242
lowerback 11.9095 -5.03018 -4.9681
upperback -1.5718 -7.38142 0.700698
thorax -7.61528 -3.36133 4.82784
lowerneck -0.93933 12.4451 24.5854
upperneck 21.0063 16.4105 -7.44602
head 9.57131 8.99242 -4.68982
rclavicle -1.06151e-013 -6.36111e-015
rhumerus 15.6167 31.7855 -81.8531
rradius 133.042
rwrist -36.3969
rhand -18.6904 -3.55125
rfingers 7.12502
rthumb 7.60404 -33.3946
lclavicle -1.06151e-013 -6.36111e-015
lhumerus 38.9081 -0.887684 61.2343
lradius 52.4615
lwrist -10.2677
lhand -11.4639 27.1642
lfingers 7.12502
lthumb 14.5736 56.6322
rfemur -69.151 6.91239 21.954
rtibia 72.0161
rfoot -18.8636 3.06803
rtoes -0.702653
lfemur -23.0506 5.29991 6.49094
ltibia 74.4375
lfoot -25.3196 -2.4484
ltoes -41.4469
916
root -1.75748 13.0721 5.58904 17.0492 -12.257 -5.96486
lowerback 12.2666 -5.36765 -4.987
upperback -1.60021 -7.83774 0.904556
thorax -7.76744 -3.56953 5.16863
lowerneck -0.789396 12.6503 24.4484
upperneck 21.1191 16.7859 -7.62463
head 9.65059 9.15033 -4.68156
rclavicle -6.32135e-014 1.74931e-014
rhumerus 16.0383 32.1281 -81.4395
rradius 132.971
rwrist -35.5928
rhand -18.6398 -3.45786
rfingers 7.12502
rthumb 7.6528 -33.2994
lclavicle -6.32135e-014 1.74931e-014
lhumerus 39.4696 1.46027 62.366
lradius 49.0982
lwrist -11.2165
lhand -11.2111 25.8876
lfingers 7.12502
lthumb 14.8171 55.3378
rfemur -69.0422 6.79753 22.0838
rtibia 72.1082
rfoot -18.909 3.01226
rtoes -0.757712
lfemur -23.1938 5.43323 6.81711
ltibia 74.7607
lfoot -25.2548 -3.05645
ltoes -41.4527
917
root -1.75444 13.0581 5.57173 16.9067 -12.0091 -6.05473
lowerback 12.5758 -5.64386 -4.87301
upperback -1.62762 -8.18916 1.10556
thorax -7.91809 -3.73237 5.41544
lowerneck -0.760392 12.786 24.263
upperneck 21.1721 17.0514 -7.85332
head 9.70987 9.24599 -4.69575
rclavicle 1.23246e-014 -2.22639e-014
rhumerus 16.4818 32.4102 -81.0424
rradius 132.957
rwrist -34.8962
rhand -18.5538 -3.38819
rfingers 7.12502
rthumb 7.73581 -33.2267
lclavicle 1.23246e-014 -2.22639e-014
lhumerus 39.6151 3.29788 63.301
lradius 47.6517
lwrist -10.7854
lhand -11.5377 24.9872
lfingers 7.12502
lthumb 14.5025 54.4604
rfemur -68.9612 6.65363 22.1993
rtibia 72.2058
rfoot -18.9823 2.89593
rtoes -0.855644
lfemur -23.3872 5.545 7.18366
ltibia 75.0304
lfoot -25.233 -3.74669
ltoes -41.4769
